<?xml version="1.0" encoding="UTF-8" standalone="no"?>
<svg
   height="24"
   viewBox="0 0 24 24"
   width="24"
   version="1.1"
   id="svg6"
   sodipodi:docname="icon.svg"
   inkscape:version="1.4 (e7c3feb100, 2024-10-09)"
   inkscape:export-filename="visibility-24px.png"
   inkscape:export-xdpi="96"
   inkscape:export-ydpi="96"
   xmlns:inkscape="http://www.inkscape.org/namespaces/inkscape"
   xmlns:sodipodi="http://sodipodi.sourceforge.net/DTD/sodipodi-0.dtd"
   xmlns="http://www.w3.org/2000/svg"
   xmlns:svg="http://www.w3.org/2000/svg"
   xmlns:rdf="http://www.w3.org/1999/02/22-rdf-syntax-ns#"
   xmlns:cc="http://creativecommons.org/ns#"
   xmlns:dc="http://purl.org/dc/elements/1.1/">
  <metadata
     id="metadata12">
    <rdf:RDF>
      <cc:Work
         rdf:about="">
        <dc:format>image/svg+xml</dc:format>
        <dc:type
           rdf:resource="http://purl.org/dc/dcmitype/StillImage" />
      </cc:Work>
    </rdf:RDF>
  </metadata>
  <defs
     id="defs10" />
  <sodipodi:namedview
     pagecolor="#ffffff"
     bordercolor="#666666"
     borderopacity="1"
     objecttolerance="10"
     gridtolerance="10"
     guidetolerance="10"
     inkscape:pageopacity="0"
     inkscape:pageshadow="2"
     inkscape:window-width="846"
     inkscape:window-height="480"
     id="namedview8"
     showgrid="false"
     inkscape:zoom="21.938644"
     inkscape:cx="5.5381727"
     inkscape:cy="13.492174"
     inkscape:window-x="0"
     inkscape:window-y="36"
     inkscape:window-maximized="0"
     inkscape:current-layer="svg6"
     inkscape:showpageshadow="2"
     inkscape:pagecheckerboard="0"
     inkscape:deskcolor="#d1d1d1"
     inkscape:export-bgcolor="#ffffffff" />
  <path
     d="M0 0h24v24H0V0z"
     fill="none"
     id="path2" />
  <path
     d="m 12,3.6469523 c 3.442896,0 6.513343,1.9349265 8.01223,4.996289 C 18.513343,11.704603 15.442896,13.63953 12,13.63953 8.557103,13.63953 5.4866558,11.704603 3.9877692,8.6432413 5.4866558,5.5818788 8.557103,3.6469523 12,3.6469523 m 0,-1.8168324 c -4.542081,0 -8.4210181,2.8251744 -9.9925781,6.8131214 C 3.5789819,12.631188 7.457919,15.456363 12,15.456363 c 4.54208,0 8.421017,-2.825175 9.992577,-6.8131217 C 20.421017,4.6552943 16.54208,1.8301199 12,1.8301199 Z m 0,4.542081 c 1.253614,0 2.271039,1.0174261 2.271039,2.2710404 0,1.2536144 -1.017425,2.2710407 -2.271039,2.2710407 -1.253615,0 -2.271041,-1.0174263 -2.271041,-2.2710407 0,-1.2536143 1.017426,-2.2710404 2.271041,-2.2710404 m 0,-1.8168324 c -2.252873,0 -4.0878729,1.8350007 -4.0878729,4.0878728 0,2.2528727 1.8349999,4.0878727 4.0878729,4.0878727 2.252871,0 4.087872,-1.835 4.087872,-4.0878727 0,-2.2528721 -1.835001,-4.0878728 -4.087872,-4.0878728 z"
     id="path4"
     style="fill:#999999;stroke-width:0.908416" />
  <g
     id="g2"
     transform="matrix(1.1829139,0,0,1.1829139,-2.4934157,-0.55543644)">
    <rect
       style="fill:none;stroke:#999999"
       id="rect1"
       width="16.291468"
       height="3.4225774"
       x="4.106566"
       y="15.288725" />
    <text
       xml:space="preserve"
       style="font-style:normal;font-variant:normal;font-weight:normal;font-stretch:normal;font-size:2.29354px;font-family:Ubuntu;-inkscape-font-specification:Ubuntu;text-align:start;writing-mode:lr-tb;direction:ltr;text-anchor:start;fill:none;stroke:#999999;stroke-width:0.430037"
       x="5.2753601"
       y="18.175814"
       id="text2"><tspan
         sodipodi:role="line"
         id="tspan2"
         x="5.2753601"
         y="18.175814"
         style="font-style:normal;font-variant:normal;font-weight:normal;font-stretch:normal;font-family:'DejaVu Sans';-inkscape-font-specification:'DejaVu Sans';stroke-width:0.430037">* * *</tspan></text>
  </g>
</svg>
